<svg width="183" height="102" viewBox="0 0 183 102" fill="none" xmlns="http://www.w3.org/2000/svg">
<path d="M72.6859 17.9981C70.7596 17.9981 68.7358 17.6331 67.1497 16.754V1.24411C68.711 0.389878 70.7347 2.85548e-05 72.6859 2.85548e-05C74.6371 2.85548e-05 76.6131 0.365035 78.1725 1.24411V7.19505H74.2453V3.14558C73.7828 2.95066 73.221 2.87804 72.6611 2.87804C72.1011 2.87804 71.5871 2.95066 71.0998 3.14558V14.8525C71.5622 15.0475 72.0992 15.1201 72.6611 15.1201C73.2229 15.1201 73.758 15.0475 74.2453 14.8525V10.805H78.1725V16.7559C76.636 17.6102 74.6122 17.9752 72.6859 18V17.9981Z" fill="#F7DD43"/>
<path d="M85.5377 17.9981C83.4642 17.9981 81.4653 17.5585 79.8791 16.6565V1.3167C81.4404 0.439536 83.4413 0 85.5377 0C87.634 0 89.5852 0.414693 91.1465 1.3167V16.6565C89.6101 17.5585 87.5863 17.9732 85.5377 17.9981ZM87.2213 3.19524C86.7588 3.00031 86.197 2.90285 85.5147 2.90285C84.8325 2.90285 84.2955 3.00031 83.8311 3.19524V14.7799C84.2936 14.9997 84.8554 15.0971 85.5147 15.0971C86.174 15.0971 86.734 14.9997 87.2213 14.7799V3.19524Z" fill="#F7DD43"/>
<path d="M97.9994 11.4127H96.9502V17.7783H92.9753V0.219779H97.9994C100.39 0.219779 102.194 0.707092 103.608 1.70656V9.92589C102.219 10.9024 100.388 11.4127 97.9994 11.4127ZM99.6582 3.24303C99.2932 2.97548 98.8039 2.85318 97.9745 2.85318H96.9005V8.77927H97.9745C98.7791 8.77927 99.2664 8.65697 99.6582 8.41427V3.24303Z" fill="#F7DD43"/>
<path d="M111.923 17.7783V11.4127H108.997V17.7783H105.047V1.29185C106.486 0.437625 108.51 0 110.461 0C112.412 0 114.411 0.439537 115.85 1.29185V17.7783H111.923ZM111.923 3.04809C111.508 2.85316 110.996 2.7557 110.459 2.7557C109.922 2.7557 109.41 2.85316 108.995 3.04809V8.63211H111.921V3.04809H111.923Z" fill="#F7DD43"/>
<path d="M14.7129 47.9248H19.0928C19.0049 49.3604 18.6094 50.6348 17.9062 51.748C17.2129 52.8613 16.2412 53.7305 14.9912 54.3555C13.751 54.9805 12.2568 55.293 10.5088 55.293C9.1416 55.293 7.91602 55.0586 6.83203 54.5898C5.74805 54.1113 4.82031 53.4277 4.04883 52.5391C3.28711 51.6504 2.70605 50.5762 2.30566 49.3164C1.90527 48.0566 1.70508 46.6455 1.70508 45.083V43.6035C1.70508 42.041 1.91016 40.6299 2.32031 39.3701C2.74023 38.1006 3.33594 37.0215 4.10742 36.1328C4.88867 35.2441 5.82129 34.5605 6.90527 34.082C7.98926 33.6035 9.2002 33.3643 10.5381 33.3643C12.3154 33.3643 13.8145 33.6865 15.0352 34.3311C16.2656 34.9756 17.2178 35.8643 17.8916 36.9971C18.5752 38.1299 18.9854 39.4189 19.1221 40.8643H14.7275C14.6787 40.0049 14.5078 39.2773 14.2148 38.6816C13.9219 38.0762 13.4775 37.6221 12.8818 37.3193C12.2959 37.0068 11.5146 36.8506 10.5381 36.8506C9.80566 36.8506 9.16602 36.9873 8.61914 37.2607C8.07227 37.5342 7.61328 37.9492 7.24219 38.5059C6.87109 39.0625 6.59277 39.7656 6.40723 40.6152C6.23145 41.4551 6.14355 42.4414 6.14355 43.5742V45.083C6.14355 46.1865 6.22656 47.1582 6.39258 47.998C6.55859 48.8281 6.8125 49.5312 7.1543 50.1074C7.50586 50.6738 7.95508 51.1035 8.50195 51.3965C9.05859 51.6797 9.72754 51.8213 10.5088 51.8213C11.4268 51.8213 12.1836 51.6748 12.7793 51.3818C13.375 51.0889 13.8291 50.6543 14.1416 50.0781C14.4639 49.502 14.6543 48.7842 14.7129 47.9248ZM30.6504 37.3193L24.8496 55H20.1768L28.1016 33.6719H31.0752L30.6504 37.3193ZM35.4697 55L29.6543 37.3193L29.1855 33.6719H32.1885L40.1572 55H35.4697ZM35.2061 47.0605V50.5029H23.9414V47.0605H35.2061ZM55.8457 51.5723V55H45.1084V51.5723H55.8457ZM46.5293 33.6719V55H42.1348V33.6719H46.5293ZM72.6768 51.5723V55H61.3242V51.5723H72.6768ZM62.7598 33.6719V55H58.3652V33.6719H62.7598ZM71.1973 42.3584V45.6982H61.3242V42.3584H71.1973ZM72.6621 33.6719V37.1143H61.3242V33.6719H72.6621ZM92.5986 33.6719V55H88.2041L79.6348 40.7031V55H75.2402V33.6719H79.6348L88.2188 47.9834V33.6719H92.5986ZM102.97 55H98.3262L98.3555 51.5723H102.97C104.122 51.5723 105.094 51.3135 105.885 50.7959C106.676 50.2686 107.271 49.502 107.672 48.4961C108.082 47.4902 108.287 46.2744 108.287 44.8486V43.8086C108.287 42.7148 108.17 41.7529 107.936 40.9229C107.711 40.0928 107.374 39.3945 106.925 38.8281C106.476 38.2617 105.924 37.8369 105.27 37.5537C104.615 37.2607 103.863 37.1143 103.014 37.1143H98.2383V33.6719H103.014C104.439 33.6719 105.743 33.916 106.925 34.4043C108.116 34.8828 109.146 35.5713 110.016 36.4697C110.885 37.3682 111.554 38.4424 112.022 39.6924C112.501 40.9326 112.74 42.3145 112.74 43.8379V44.8486C112.74 46.3623 112.501 47.7441 112.022 48.9941C111.554 50.2441 110.885 51.3184 110.016 52.2168C109.156 53.1055 108.126 53.7939 106.925 54.2822C105.733 54.7607 104.415 55 102.97 55ZM100.816 33.6719V55H96.4219V33.6719H100.816ZM124.283 37.3193L118.482 55H113.81L121.734 33.6719H124.708L124.283 37.3193ZM129.103 55L123.287 37.3193L122.818 33.6719H125.821L133.79 55H129.103ZM128.839 47.0605V50.5029H117.574V47.0605H128.839ZM121.808 32.4707L124.679 27.959H129.264L125.235 32.4707H121.808ZM135.768 33.6719H143.722C145.353 33.6719 146.754 33.916 147.926 34.4043C149.107 34.8926 150.016 35.6152 150.65 36.5723C151.285 37.5293 151.603 38.7061 151.603 40.1025C151.603 41.2451 151.407 42.2266 151.017 43.0469C150.636 43.8574 150.094 44.5361 149.391 45.083C148.697 45.6201 147.882 46.0498 146.944 46.3721L145.553 47.1045H138.639L138.609 43.6768H143.751C144.522 43.6768 145.162 43.54 145.67 43.2666C146.178 42.9932 146.559 42.6123 146.812 42.124C147.076 41.6357 147.208 41.0693 147.208 40.4248C147.208 39.7412 147.081 39.1504 146.827 38.6523C146.573 38.1543 146.188 37.7734 145.67 37.5098C145.152 37.2461 144.503 37.1143 143.722 37.1143H140.162V55H135.768V33.6719ZM147.691 55L142.828 45.4932L147.472 45.4639L152.394 54.7949V55H147.691ZM159.659 33.6719V55H155.279V33.6719H159.659ZM181.295 43.8379V44.8486C181.295 46.4697 181.075 47.9248 180.636 49.2139C180.196 50.5029 179.576 51.6016 178.775 52.5098C177.975 53.4082 177.018 54.0967 175.904 54.5752C174.801 55.0537 173.575 55.293 172.228 55.293C170.89 55.293 169.664 55.0537 168.551 54.5752C167.447 54.0967 166.49 53.4082 165.68 52.5098C164.869 51.6016 164.239 50.5029 163.79 49.2139C163.351 47.9248 163.131 46.4697 163.131 44.8486V43.8379C163.131 42.207 163.351 40.752 163.79 39.4727C164.229 38.1836 164.85 37.085 165.65 36.1768C166.461 35.2686 167.418 34.5752 168.521 34.0967C169.635 33.6182 170.86 33.3789 172.198 33.3789C173.546 33.3789 174.771 33.6182 175.875 34.0967C176.988 34.5752 177.945 35.2686 178.746 36.1768C179.557 37.085 180.182 38.1836 180.621 39.4727C181.07 40.752 181.295 42.207 181.295 43.8379ZM176.856 44.8486V43.8086C176.856 42.6758 176.754 41.6797 176.549 40.8203C176.344 39.9609 176.041 39.2383 175.641 38.6523C175.24 38.0664 174.752 37.627 174.176 37.334C173.6 37.0312 172.94 36.8799 172.198 36.8799C171.456 36.8799 170.797 37.0312 170.221 37.334C169.654 37.627 169.171 38.0664 168.771 38.6523C168.38 39.2383 168.082 39.9609 167.877 40.8203C167.672 41.6797 167.569 42.6758 167.569 43.8086V44.8486C167.569 45.9717 167.672 46.9678 167.877 47.8369C168.082 48.6963 168.385 49.4238 168.785 50.0195C169.186 50.6055 169.674 51.0498 170.25 51.3525C170.826 51.6553 171.485 51.8066 172.228 51.8066C172.97 51.8066 173.629 51.6553 174.205 51.3525C174.781 51.0498 175.265 50.6055 175.655 50.0195C176.046 49.4238 176.344 48.6963 176.549 47.8369C176.754 46.9678 176.856 45.9717 176.856 44.8486ZM73.1016 89.7041V93H58.5117V90.1875L65.4111 82.79C66.1045 82.0186 66.6514 81.3398 67.0518 80.7539C67.4521 80.1582 67.7402 79.626 67.916 79.1572C68.1016 78.6787 68.1943 78.2246 68.1943 77.7949C68.1943 77.1504 68.0869 76.5986 67.8721 76.1396C67.6572 75.6709 67.3398 75.3096 66.9199 75.0557C66.5098 74.8018 66.002 74.6748 65.3965 74.6748C64.752 74.6748 64.1953 74.8311 63.7266 75.1436C63.2676 75.4561 62.916 75.8906 62.6719 76.4473C62.4375 77.0039 62.3203 77.6338 62.3203 78.3369H58.0869C58.0869 77.0674 58.3896 75.9053 58.9951 74.8506C59.6006 73.7861 60.4551 72.9414 61.5586 72.3164C62.6621 71.6816 63.9707 71.3643 65.4844 71.3643C66.9785 71.3643 68.2383 71.6084 69.2637 72.0967C70.2988 72.5752 71.0801 73.2686 71.6074 74.1768C72.1445 75.0752 72.4131 76.1494 72.4131 77.3994C72.4131 78.1025 72.3008 78.791 72.0762 79.4648C71.8516 80.1289 71.5293 80.793 71.1094 81.457C70.6992 82.1113 70.2012 82.7754 69.6152 83.4492C69.0293 84.123 68.3799 84.8213 67.667 85.5439L63.9609 89.7041H73.1016ZM90.0938 80.4609V84.1523C90.0938 85.7539 89.9229 87.1357 89.5811 88.2979C89.2393 89.4502 88.7461 90.3975 88.1016 91.1396C87.4668 91.8721 86.71 92.4141 85.8311 92.7656C84.9521 93.1172 83.9756 93.293 82.9014 93.293C82.042 93.293 81.2412 93.1855 80.499 92.9707C79.7568 92.7461 79.0879 92.3994 78.4922 91.9307C77.9062 91.4619 77.3984 90.8711 76.9688 90.1582C76.5488 89.4355 76.2266 88.5762 76.002 87.5801C75.7773 86.584 75.665 85.4414 75.665 84.1523V80.4609C75.665 78.8594 75.8359 77.4873 76.1777 76.3447C76.5293 75.1924 77.0225 74.25 77.6572 73.5176C78.3018 72.7852 79.0635 72.248 79.9424 71.9062C80.8213 71.5547 81.7979 71.3789 82.8721 71.3789C83.7314 71.3789 84.5273 71.4912 85.2598 71.7158C86.002 71.9307 86.6709 72.2676 87.2666 72.7266C87.8623 73.1855 88.3701 73.7764 88.79 74.499C89.21 75.2119 89.5322 76.0664 89.7568 77.0625C89.9814 78.0488 90.0938 79.1816 90.0938 80.4609ZM85.8604 84.709V79.8896C85.8604 79.1182 85.8164 78.4443 85.7285 77.8682C85.6504 77.292 85.5283 76.8037 85.3623 76.4033C85.1963 75.9932 84.9912 75.6611 84.7471 75.4072C84.5029 75.1533 84.2246 74.9678 83.9121 74.8506C83.5996 74.7334 83.2529 74.6748 82.8721 74.6748C82.3936 74.6748 81.9688 74.7676 81.5977 74.9531C81.2363 75.1387 80.9287 75.4365 80.6748 75.8467C80.4209 76.2471 80.2256 76.7842 80.0889 77.458C79.9619 78.1221 79.8984 78.9326 79.8984 79.8896V84.709C79.8984 85.4805 79.9375 86.1592 80.0156 86.7451C80.1035 87.3311 80.2305 87.834 80.3965 88.2539C80.5723 88.6641 80.7773 89.001 81.0117 89.2646C81.2559 89.5186 81.5342 89.7041 81.8467 89.8213C82.1689 89.9385 82.5205 89.9971 82.9014 89.9971C83.3701 89.9971 83.7852 89.9043 84.1465 89.7188C84.5176 89.5234 84.8301 89.2207 85.084 88.8105C85.3477 88.3906 85.543 87.8438 85.6699 87.1699C85.7969 86.4961 85.8604 85.6758 85.8604 84.709ZM107.555 89.7041V93H92.9648V90.1875L99.8643 82.79C100.558 82.0186 101.104 81.3398 101.505 80.7539C101.905 80.1582 102.193 79.626 102.369 79.1572C102.555 78.6787 102.647 78.2246 102.647 77.7949C102.647 77.1504 102.54 76.5986 102.325 76.1396C102.11 75.6709 101.793 75.3096 101.373 75.0557C100.963 74.8018 100.455 74.6748 99.8496 74.6748C99.2051 74.6748 98.6484 74.8311 98.1797 75.1436C97.7207 75.4561 97.3691 75.8906 97.125 76.4473C96.8906 77.0039 96.7734 77.6338 96.7734 78.3369H92.54C92.54 77.0674 92.8428 75.9053 93.4482 74.8506C94.0537 73.7861 94.9082 72.9414 96.0117 72.3164C97.1152 71.6816 98.4238 71.3643 99.9375 71.3643C101.432 71.3643 102.691 71.6084 103.717 72.0967C104.752 72.5752 105.533 73.2686 106.061 74.1768C106.598 75.0752 106.866 76.1494 106.866 77.3994C106.866 78.1025 106.754 78.791 106.529 79.4648C106.305 80.1289 105.982 80.793 105.562 81.457C105.152 82.1113 104.654 82.7754 104.068 83.4492C103.482 84.123 102.833 84.8213 102.12 85.5439L98.4141 89.7041H107.555ZM124.781 89.7041V93H110.191V90.1875L117.091 82.79C117.784 82.0186 118.331 81.3398 118.731 80.7539C119.132 80.1582 119.42 79.626 119.596 79.1572C119.781 78.6787 119.874 78.2246 119.874 77.7949C119.874 77.1504 119.767 76.5986 119.552 76.1396C119.337 75.6709 119.02 75.3096 118.6 75.0557C118.189 74.8018 117.682 74.6748 117.076 74.6748C116.432 74.6748 115.875 74.8311 115.406 75.1436C114.947 75.4561 114.596 75.8906 114.352 76.4473C114.117 77.0039 114 77.6338 114 78.3369H109.767C109.767 77.0674 110.069 75.9053 110.675 74.8506C111.28 73.7861 112.135 72.9414 113.238 72.3164C114.342 71.6816 115.65 71.3643 117.164 71.3643C118.658 71.3643 119.918 71.6084 120.943 72.0967C121.979 72.5752 122.76 73.2686 123.287 74.1768C123.824 75.0752 124.093 76.1494 124.093 77.3994C124.093 78.1025 123.98 78.791 123.756 79.4648C123.531 80.1289 123.209 80.793 122.789 81.457C122.379 82.1113 121.881 82.7754 121.295 83.4492C120.709 84.123 120.06 84.8213 119.347 85.5439L115.641 89.7041H124.781Z" fill="url(#paint0_linear_122_251)"/>
<defs>
<linearGradient id="paint0_linear_122_251" x1="91.5" y1="26" x2="91.5" y2="102" gradientUnits="userSpaceOnUse">
<stop stop-color="white"/>
<stop offset="1" stop-color="#D9D9D9" stop-opacity="0.8"/>
</linearGradient>
</defs>
</svg>
